<svg id="Calque_1" data-name="Calque 1" xmlns="http://www.w3.org/2000/svg" viewBox="0 0 433.34 85.96"><rect x="10.03" y="29.9" width="56.73" height="10.12" rx="1.13" transform="translate(40.02 -10.03) rotate(90)"/><rect x="323.95" y="45.43" width="49.93" height="11.44" rx="0.98"/><rect x="116.7" width="49.93" height="11.44" rx="0.98"/><rect x="116.7" y="22.86" width="49.93" height="11.44" rx="0.98"/><rect x="323.95" y="22.73" width="49.93" height="11.44" rx="0.98"/><path d="M261.32,6.6h-8.16a1,1,0,0,0-1,1v42.7a2,2,0,0,1-2,2H220.17a2,2,0,0,1-2-2V28.35h0V7.85a.68.68,0,0,0,0-.2V7.58a1,1,0,0,0-1-1h-8.16a1,1,0,0,0-1,1V53.67a9.78,9.78,0,0,0,9.79,9.78h34.64a9.78,9.78,0,0,0,9.78-9.78V7.58A1,1,0,0,0,261.32,6.6Z" transform="translate(-33.33 -6.6)"/><path d="M111.84,63.45H199a1,1,0,0,0,1-1V53.22a1,1,0,0,0-1-1H114.13a2,2,0,0,1-2-2V7.58a1,1,0,0,0-1-1H103a1,1,0,0,0-1,1V53.67A9.78,9.78,0,0,0,111.84,63.45Z" transform="translate(-33.33 -6.6)"/><path d="M456.88,40.66a9.79,9.79,0,0,0,9.79-9.79V16.5a9.79,9.79,0,0,0-9.79-9.79H279a9.79,9.79,0,0,0-9.79,9.79V30.85A9.79,9.79,0,0,0,279,40.64h34.49a2,2,0,0,1,2,2v7.58a2,2,0,0,1-2,2h-43.3a1,1,0,0,0-1,1v9.26a1,1,0,0,0,1,1h45.6a9.78,9.78,0,0,0,9.78-9.78V39.21a9.78,9.78,0,0,0-9.78-9.79h-34.5a2,2,0,0,1-2-2V19.88a2,2,0,0,1,2-1.95H334a1,1,0,0,1,1,1V62.45a1,1,0,0,0,1,1h8.31a1,1,0,0,0,1-1V18.9a1,1,0,0,1,1-1H454.59a2,2,0,0,1,2,1.95v7.61a2,2,0,0,1-2,2H419.86a1,1,0,0,0-1,1v8.47a3.66,3.66,0,0,0,1.39,2.87l26.18,20.73a4.49,4.49,0,0,0,2.81,1h16.08a.26.26,0,0,0,.26-.26V62a1.86,1.86,0,0,0-.73-1.47L439.13,40.66h17.75Z" transform="translate(-33.33 -6.6)"/><path d="M62.06,32.6v-.68l31.29-12.3a1.81,1.81,0,0,0,1.14-1.68V7a.26.26,0,0,0-.36-.24l-45,19.35a2,2,0,0,0-1.18,1.8v15a1,1,0,0,0,1,1h33.5a2,2,0,0,1,2,2v16.7a1,1,0,0,0,1,1h8.17a1,1,0,0,0,1-1V40.43a7.84,7.84,0,0,0-7.83-7.83Z" transform="translate(-33.33 -6.6)"/><path d="M33.38,77H36.3V87.27h6.33v2.38H33.38Z" transform="translate(-33.33 -6.6)"/><path d="M48.63,76.61a1.66,1.66,0,0,1,.49,1.25,3,3,0,0,1-.09.73,9.86,9.86,0,0,1-.38,1.08l-1,2.59H45.82l.77-2.85a1.56,1.56,0,0,1-.7-.59,1.72,1.72,0,0,1-.25-1,1.66,1.66,0,0,1,.49-1.25,1.74,1.74,0,0,1,1.26-.48A1.69,1.69,0,0,1,48.63,76.61Z" transform="translate(-33.33 -6.6)"/><path d="M64.1,87.31v2.34H54.33V77h9.53v2.34H57.23v2.74h5.86v2.27H57.23v2.92Zm-4.2-13.9h3L59.66,76h-2.2Z" transform="translate(-33.33 -6.6)"/><path d="M81.09,77V89.65H78.7L72.4,82v7.66H69.52V77h2.42l6.27,7.66V77Z" transform="translate(-33.33 -6.6)"/><path d="M97,87.31v2.34H87.19V77h9.53v2.34H90.09v2.74h5.85v2.27H90.09v2.92Z" transform="translate(-33.33 -6.6)"/><path d="M110.42,89.65,108,86.14H105.3v3.51h-2.92V77h5.46a7,7,0,0,1,2.91.55,4.4,4.4,0,0,1,1.9,1.59,4.35,4.35,0,0,1,.67,2.43,4.23,4.23,0,0,1-.68,2.43,4.29,4.29,0,0,1-1.91,1.56l2.82,4.05ZM109.68,80a3.06,3.06,0,0,0-2-.57H105.3v4.4h2.38a3.06,3.06,0,0,0,2-.57,2,2,0,0,0,.68-1.63A2,2,0,0,0,109.68,80Z" transform="translate(-33.33 -6.6)"/><path d="M127.25,83.15h2.67v5.11a7.39,7.39,0,0,1-2.38,1.19,9.13,9.13,0,0,1-2.72.42,7.34,7.34,0,0,1-3.53-.84,6.18,6.18,0,0,1-2.46-2.32,6.74,6.74,0,0,1,0-6.73,6.17,6.17,0,0,1,2.48-2.32,7.46,7.46,0,0,1,3.56-.84,7.84,7.84,0,0,1,3,.56A5.94,5.94,0,0,1,130.16,79l-1.88,1.73A4.33,4.33,0,0,0,125,79.31a4.43,4.43,0,0,0-2.15.5,3.69,3.69,0,0,0-1.46,1.42,4.21,4.21,0,0,0-.52,2.11,4.1,4.1,0,0,0,.52,2.09,3.72,3.72,0,0,0,1.45,1.44,4.35,4.35,0,0,0,2.12.51,4.73,4.73,0,0,0,2.27-.54Z" transform="translate(-33.33 -6.6)"/><path d="M135.72,77h2.92V89.65h-2.92Z" transform="translate(-33.33 -6.6)"/><path d="M154.51,87.31v2.34h-9.77V77h9.53v2.34h-6.63v2.74h5.86v2.27h-5.86v2.92Z" transform="translate(-33.33 -6.6)"/><path d="M168.13,77h5.73a8.15,8.15,0,0,1,3.64.78A5.9,5.9,0,0,1,180,80a6.75,6.75,0,0,1,0,6.63,5.9,5.9,0,0,1-2.45,2.21,8.15,8.15,0,0,1-3.64.78h-5.73Zm5.59,10.22a4.26,4.26,0,0,0,3-1.06,4.17,4.17,0,0,0,0-5.71,4.22,4.22,0,0,0-3-1.06h-2.67v7.83Z" transform="translate(-33.33 -6.6)"/><path d="M188,76.61a1.7,1.7,0,0,1,.48,1.25,3,3,0,0,1-.09.73,9.32,9.32,0,0,1-.37,1.08L187,82.26h-1.78l.77-2.85a1.56,1.56,0,0,1-.7-.59,1.72,1.72,0,0,1-.25-1,1.66,1.66,0,0,1,.49-1.25,1.87,1.87,0,0,1,2.5,0Z" transform="translate(-33.33 -6.6)"/><path d="M195.07,88.37a5.76,5.76,0,0,1-1.51-4.27V77h2.93V84c0,2.26.93,3.39,2.81,3.39a2.63,2.63,0,0,0,2.09-.82,3.83,3.83,0,0,0,.72-2.57V77H205V84.1a6,6,0,0,1-9.92,4.27Z" transform="translate(-33.33 -6.6)"/><path d="M222.55,77V89.65h-2.4L213.86,82v7.66H211V77h2.41l6.27,7.66V77Z" transform="translate(-33.33 -6.6)"/><path d="M248.32,89.65V82.08l-3.72,6.24h-1.31l-3.7-6.08v7.41h-2.74V77h2.42L244,84.88,248.63,77H251l0,12.61Z" transform="translate(-33.33 -6.6)"/><path d="M259.72,89a6.3,6.3,0,0,1-2.47-2.33,6.73,6.73,0,0,1,0-6.69,6.3,6.3,0,0,1,2.47-2.33,7.36,7.36,0,0,1,3.55-.85,7.26,7.26,0,0,1,3.53.85,6.43,6.43,0,0,1,0,11.35,7.26,7.26,0,0,1-3.53.85A7.36,7.36,0,0,1,259.72,89Zm5.56-2.15a3.58,3.58,0,0,0,1.42-1.44,4.2,4.2,0,0,0,.51-2.09,4.26,4.26,0,0,0-.51-2.09,3.62,3.62,0,0,0-1.42-1.43,4.24,4.24,0,0,0-4,0,3.68,3.68,0,0,0-1.42,1.43,4.26,4.26,0,0,0-.51,2.09,4.2,4.2,0,0,0,.51,2.09,3.64,3.64,0,0,0,1.42,1.44,4.24,4.24,0,0,0,4,0Z" transform="translate(-33.33 -6.6)"/><path d="M287,77V89.65h-2.4L278.35,82v7.66h-2.88V77h2.41l6.28,7.66V77Z" transform="translate(-33.33 -6.6)"/><path d="M293.13,77h5.73a8.15,8.15,0,0,1,3.64.78A5.9,5.9,0,0,1,305,80a6.75,6.75,0,0,1,0,6.63,5.9,5.9,0,0,1-2.45,2.21,8.15,8.15,0,0,1-3.64.78h-5.73Zm5.59,10.22a4.26,4.26,0,0,0,3-1.06,4.17,4.17,0,0,0,0-5.71,4.22,4.22,0,0,0-3-1.06h-2.67v7.83Z" transform="translate(-33.33 -6.6)"/><path d="M320.89,87.31v2.34h-9.77V77h9.54v2.34H314v2.74h5.86v2.27H314v2.92Z" transform="translate(-33.33 -6.6)"/><path d="M348.16,91a4,4,0,0,1-1.49,1.16,4.64,4.64,0,0,1-1.92.39,5.38,5.38,0,0,1-2.54-.6,10.78,10.78,0,0,1-2.59-2.14,7.2,7.2,0,0,1-3.06-1.09,6.26,6.26,0,0,1-2.09-2.28,6.49,6.49,0,0,1-.75-3.1,6.33,6.33,0,0,1,.9-3.34,6.17,6.17,0,0,1,2.47-2.33,7.78,7.78,0,0,1,7.07,0,6.53,6.53,0,0,1,2.14,9.53A6.39,6.39,0,0,1,343,89.51a3.11,3.11,0,0,0,.88.67,2,2,0,0,0,.91.21,2.72,2.72,0,0,0,2.05-.94Zm-11-5.57a3.71,3.71,0,0,0,1.42,1.44,4,4,0,0,0,2,.51,4.07,4.07,0,0,0,2-.51,3.62,3.62,0,0,0,1.41-1.44,4.2,4.2,0,0,0,.51-2.09,4.26,4.26,0,0,0-.51-2.09,3.66,3.66,0,0,0-1.41-1.43,4.07,4.07,0,0,0-2-.51,4,4,0,0,0-2,.51,3.75,3.75,0,0,0-1.42,1.43,4.26,4.26,0,0,0-.51,2.09A4.2,4.2,0,0,0,337.19,85.43Z" transform="translate(-33.33 -6.6)"/><path d="M354.23,88.37a5.72,5.72,0,0,1-1.51-4.27V77h2.92V84q0,3.39,2.81,3.39a2.61,2.61,0,0,0,2.09-.82,3.83,3.83,0,0,0,.73-2.57V77h2.88V84.1a6,6,0,0,1-9.92,4.27Z" transform="translate(-33.33 -6.6)"/><path d="M370.13,77h2.92V89.65h-2.92Z" transform="translate(-33.33 -6.6)"/><path d="M398.31,84.24a3.19,3.19,0,0,1,.61,2,2.9,2.9,0,0,1-1.29,2.55,6.63,6.63,0,0,1-3.76.89h-6.52V77h6.16a6,6,0,0,1,3.54.88,2.79,2.79,0,0,1,1.24,2.4,3.12,3.12,0,0,1-.44,1.64,3.08,3.08,0,0,1-1.24,1.13A3.34,3.34,0,0,1,398.31,84.24Zm-8.06-5v3h2.9a2.94,2.94,0,0,0,1.64-.38,1.39,1.39,0,0,0,0-2.23,3,3,0,0,0-1.64-.37Zm5.14,7.84A1.29,1.29,0,0,0,396,85.9c0-1-.77-1.56-2.33-1.56h-3.4v3.11h3.4A3.16,3.16,0,0,0,395.39,87.07Z" transform="translate(-33.33 -6.6)"/><path d="M406.8,89a6.3,6.3,0,0,1-2.47-2.33,6.73,6.73,0,0,1,0-6.69,6.3,6.3,0,0,1,2.47-2.33,7.36,7.36,0,0,1,3.55-.85,7.26,7.26,0,0,1,3.53.85,6.43,6.43,0,0,1,0,11.35,7.26,7.26,0,0,1-3.53.85A7.36,7.36,0,0,1,406.8,89Zm5.56-2.15a3.58,3.58,0,0,0,1.42-1.44,4.2,4.2,0,0,0,.51-2.09,4.26,4.26,0,0,0-.51-2.09,3.62,3.62,0,0,0-1.42-1.43,4.24,4.24,0,0,0-4,0,3.68,3.68,0,0,0-1.42,1.43,4.26,4.26,0,0,0-.51,2.09,4.2,4.2,0,0,0,.51,2.09,3.64,3.64,0,0,0,1.42,1.44,4.24,4.24,0,0,0,4,0Z" transform="translate(-33.33 -6.6)"/><path d="M424,88.37a5.72,5.72,0,0,1-1.51-4.27V77h2.92V84q0,3.39,2.81,3.39a2.61,2.61,0,0,0,2.09-.82A3.83,3.83,0,0,0,431,84V77h2.89V84.1A6,6,0,0,1,424,88.37Z" transform="translate(-33.33 -6.6)"/><path d="M448.38,83.15h2.67v5.11a7.49,7.49,0,0,1-2.38,1.19,9.19,9.19,0,0,1-2.73.42,7.36,7.36,0,0,1-3.53-.84A6.32,6.32,0,0,1,440,86.71,6.81,6.81,0,0,1,440,80a6.24,6.24,0,0,1,2.48-2.32,7.52,7.52,0,0,1,3.57-.84,7.87,7.87,0,0,1,3,.56A5.91,5.91,0,0,1,451.28,79l-1.88,1.73a4.31,4.31,0,0,0-3.26-1.42,4.39,4.39,0,0,0-2.14.5,3.63,3.63,0,0,0-1.46,1.42,4.21,4.21,0,0,0-.53,2.11,4.11,4.11,0,0,0,.53,2.09A3.65,3.65,0,0,0,444,86.87a4.32,4.32,0,0,0,2.12.51,4.76,4.76,0,0,0,2.27-.54Z" transform="translate(-33.33 -6.6)"/><path d="M466.62,87.31v2.34h-9.77V77h9.53v2.34h-6.63v2.74h5.86v2.27h-5.86v2.92Z" transform="translate(-33.33 -6.6)"/></svg>